if (_typeface_js && _typeface_js.loadFace) _typeface_js.loadFace({"glyphs":{"0":{"ha":889,"x_min":-36,"x_max":844,"o":"m 792 1029 l 736 971 l 531 971 l 488 1026 l 543 1085 l 749 1085 l 792 1029 m 794 500 l 742 439 l 703 500 l 753 949 l 804 1010 l 844 949 l 794 500 m 719 801 l 515 497 l 475 497 l 488 617 l 713 950 l 736 950 l 719 801 m 457 1029 l 401 971 l 196 971 l 153 1026 l 208 1085 l 414 1085 l 457 1029 m 725 -107 l 675 -169 l 635 -107 l 685 338 l 736 399 l 775 338 l 725 -107 m 124 500 l 72 439 l 32 500 l 82 946 l 133 1007 l 175 946 l 124 500 m 654 -187 l 599 -246 l 394 -246 l 351 -190 l 407 -132 l 613 -132 l 654 -187 m 319 222 l 96 -111 l 71 -111 l 88 36 l 292 342 l 333 342 l 319 222 m 56 -107 l 3 -169 l -36 -107 l 14 338 l 65 399 l 106 338 l 56 -107 m 319 -187 l 264 -246 l 58 -246 l 17 -190 l 72 -132 l 276 -132 l 319 -187 z "},"1":{"ha":889,"x_min":17,"x_max":654,"o":"m 457 1029 l 401 971 l 196 971 l 153 1026 l 208 1085 l 414 1085 l 457 1029 m 458 500 l 408 439 l 367 500 l 418 946 l 469 1007 l 508 946 l 458 500 m 390 -107 l 339 -169 l 299 -107 l 349 338 l 400 399 l 442 338 l 390 -107 m 654 -187 l 599 -246 l 394 -246 l 351 -190 l 407 -132 l 613 -132 l 654 -187 m 319 -187 l 264 -246 l 58 -246 l 17 -190 l 72 -132 l 276 -132 l 319 -187 z "},"2":{"ha":889,"x_min":-36,"x_max":844,"o":"m 792 1029 l 736 971 l 531 971 l 488 1026 l 543 1085 l 749 1085 l 792 1029 m 794 500 l 742 439 l 703 500 l 753 949 l 804 1010 l 844 949 l 794 500 m 457 1029 l 401 971 l 196 971 l 153 1026 l 208 1085 l 414 1085 l 457 1029 m 724 421 l 668 363 l 463 363 l 419 418 l 475 476 l 681 476 l 724 421 m 388 421 l 332 363 l 128 363 l 85 418 l 140 476 l 346 476 l 388 421 m 654 -187 l 599 -246 l 394 -246 l 351 -190 l 407 -132 l 613 -132 l 654 -187 m 56 -107 l 3 -169 l -36 -107 l 14 338 l 65 399 l 106 338 l 56 -107 m 319 -187 l 264 -246 l 58 -246 l 17 -190 l 72 -132 l 276 -132 l 319 -187 z "},"3":{"ha":889,"x_min":17,"x_max":844,"o":"m 792 1029 l 736 971 l 531 971 l 488 1026 l 543 1085 l 749 1085 l 792 1029 m 794 500 l 742 439 l 703 500 l 753 949 l 804 1010 l 844 949 l 794 500 m 457 1029 l 401 971 l 196 971 l 153 1026 l 208 1085 l 414 1085 l 457 1029 m 724 421 l 668 363 l 463 363 l 419 418 l 475 476 l 681 476 l 724 421 m 725 -107 l 675 -169 l 635 -107 l 685 338 l 736 399 l 775 338 l 725 -107 m 654 -187 l 599 -246 l 394 -246 l 351 -190 l 407 -132 l 613 -132 l 654 -187 m 319 -187 l 264 -246 l 58 -246 l 17 -190 l 72 -132 l 276 -132 l 319 -187 z "},"4":{"ha":889,"x_min":32,"x_max":844,"o":"m 793 500 l 742 439 l 703 500 l 753 949 l 804 1010 l 844 949 l 793 500 m 724 421 l 668 363 l 463 363 l 419 418 l 475 476 l 681 476 l 724 421 m 725 -107 l 674 -169 l 633 -107 l 683 338 l 736 399 l 775 338 l 725 -107 m 124 500 l 72 439 l 32 500 l 82 946 l 133 1007 l 174 946 l 124 500 m 388 421 l 332 363 l 128 363 l 85 418 l 140 476 l 346 476 l 388 421 z "},"5":{"ha":889,"x_min":17,"x_max":792,"o":"m 792 1029 l 736 971 l 531 971 l 488 1026 l 543 1085 l 749 1085 l 792 1029 m 457 1029 l 401 971 l 196 971 l 153 1026 l 208 1085 l 414 1085 l 457 1029 m 724 421 l 668 363 l 463 363 l 419 418 l 475 476 l 681 476 l 724 421 m 725 -107 l 675 -169 l 635 -107 l 685 338 l 736 399 l 775 338 l 725 -107 m 124 500 l 72 439 l 32 500 l 82 946 l 133 1007 l 175 946 l 124 500 m 388 421 l 332 363 l 128 363 l 85 418 l 140 476 l 346 476 l 388 421 m 654 -187 l 599 -246 l 394 -246 l 351 -190 l 407 -132 l 613 -132 l 654 -187 m 319 -187 l 264 -246 l 58 -246 l 17 -190 l 72 -132 l 276 -132 l 319 -187 z "},"6":{"ha":889,"x_min":-36,"x_max":792,"o":"m 792 1029 l 736 971 l 531 971 l 488 1026 l 543 1085 l 749 1085 l 792 1029 m 457 1029 l 401 971 l 196 971 l 153 1026 l 208 1085 l 414 1085 l 457 1029 m 724 421 l 668 363 l 463 363 l 419 418 l 475 476 l 681 476 l 724 421 m 725 -107 l 675 -169 l 635 -107 l 685 338 l 736 399 l 775 338 l 725 -107 m 124 500 l 72 439 l 32 500 l 82 946 l 133 1007 l 175 946 l 124 500 m 388 421 l 332 363 l 128 363 l 85 418 l 140 476 l 346 476 l 388 421 m 654 -187 l 599 -246 l 394 -246 l 351 -190 l 407 -132 l 613 -132 l 654 -187 m 56 -107 l 3 -169 l -36 -107 l 14 338 l 65 399 l 106 338 l 56 -107 m 319 -187 l 264 -246 l 58 -246 l 17 -190 l 72 -132 l 276 -132 l 319 -187 z "},"7":{"ha":889,"x_min":64,"x_max":783,"o":"m 783 1029 l 728 971 l 524 971 l 481 1026 l 536 1085 l 742 1085 l 783 1029 m 713 801 l 508 497 l 467 497 l 481 617 l 704 950 l 729 950 l 713 801 m 449 1029 l 393 971 l 188 971 l 146 1026 l 201 1085 l 407 1085 l 449 1029 m 313 222 l 88 -111 l 64 -111 l 81 36 l 285 342 l 325 342 l 313 222 z "},"8":{"ha":889,"x_min":-36,"x_max":844,"o":"m 792 1029 l 736 971 l 531 971 l 488 1026 l 543 1085 l 749 1085 l 792 1029 m 794 500 l 742 439 l 703 500 l 753 949 l 804 1010 l 844 949 l 794 500 m 457 1029 l 401 971 l 196 971 l 153 1026 l 208 1085 l 414 1085 l 457 1029 m 724 421 l 668 363 l 463 363 l 419 418 l 475 476 l 681 476 l 724 421 m 725 -107 l 675 -169 l 635 -107 l 685 338 l 736 399 l 775 338 l 725 -107 m 124 500 l 72 439 l 32 500 l 82 946 l 133 1007 l 175 946 l 124 500 m 388 421 l 332 363 l 128 363 l 85 418 l 140 476 l 346 476 l 388 421 m 654 -187 l 599 -246 l 394 -246 l 351 -190 l 407 -132 l 613 -132 l 654 -187 m 56 -107 l 3 -169 l -36 -107 l 14 338 l 65 399 l 106 338 l 56 -107 m 319 -187 l 264 -246 l 58 -246 l 17 -190 l 72 -132 l 276 -132 l 319 -187 z "},"9":{"ha":889,"x_min":17,"x_max":844,"o":"m 792 1029 l 736 971 l 531 971 l 488 1026 l 543 1085 l 749 1085 l 792 1029 m 794 500 l 742 439 l 703 500 l 753 949 l 804 1010 l 844 949 l 794 500 m 457 1029 l 401 971 l 196 971 l 153 1026 l 208 1085 l 414 1085 l 457 1029 m 724 421 l 668 363 l 463 363 l 419 418 l 475 476 l 681 476 l 724 421 m 725 -107 l 675 -169 l 635 -107 l 685 338 l 736 399 l 775 338 l 725 -107 m 124 500 l 72 439 l 32 500 l 82 946 l 133 1007 l 175 946 l 124 500 m 388 421 l 332 363 l 128 363 l 85 418 l 140 476 l 346 476 l 388 421 m 654 -187 l 599 -246 l 394 -246 l 351 -190 l 407 -132 l 613 -132 l 654 -187 m 319 -187 l 264 -246 l 58 -246 l 17 -190 l 72 -132 l 276 -132 l 319 -187 z "}," ":{"ha":889,"x_min":0,"x_max":0,"o":""},"!":{"ha":889,"x_min":260,"x_max":514,"o":"m 464 500 l 413 439 l 371 500 l 422 946 l 474 1007 l 514 946 l 464 500 m 425 -144 q 397 -212 421 -183 q 333 -246 371 -246 q 278 -211 299 -246 q 264 -144 260 -181 q 294 -76 269 -106 q 356 -46 319 -46 q 411 -76 393 -46 q 425 -144 429 -106 z "},"\"":{"ha":889,"x_min":14,"x_max":458,"o":"m 440 778 l 389 717 l 349 778 l 368 946 l 419 1007 l 458 946 l 440 778 m 106 778 l 53 717 l 14 778 l 32 946 l 85 1007 l 125 946 l 106 778 z "},"#":{"ha":889,"x_min":-36,"x_max":844,"o":"m 793 500 l 742 439 l 703 500 l 753 949 l 804 1010 l 844 949 l 793 500 m 458 500 l 407 439 l 367 500 l 417 946 l 469 1007 l 508 946 l 458 500 m 724 421 l 668 363 l 463 363 l 419 418 l 475 476 l 681 476 l 724 421 m 725 -107 l 674 -169 l 633 -107 l 683 338 l 736 399 l 775 338 l 725 -107 m 124 500 l 72 439 l 32 500 l 82 946 l 133 1007 l 174 946 l 124 500 m 388 421 l 332 363 l 128 363 l 85 418 l 140 476 l 346 476 l 388 421 m 390 -107 l 339 -169 l 299 -107 l 349 338 l 400 399 l 440 338 l 390 -107 m 56 -107 l 3 -169 l -36 -107 l 14 338 l 65 399 l 106 338 l 56 -107 z "},"$":{"ha":889,"x_min":17,"x_max":792,"o":"m 792 1029 l 736 971 l 531 971 l 488 1026 l 543 1085 l 749 1085 l 792 1029 m 457 1029 l 401 971 l 196 971 l 153 1026 l 208 1085 l 414 1085 l 457 1029 m 724 421 l 668 363 l 463 363 l 419 418 l 475 476 l 681 476 l 724 421 m 725 -107 l 675 -169 l 635 -107 l 685 338 l 736 399 l 775 338 l 725 -107 m 124 500 l 72 439 l 32 500 l 82 946 l 133 1007 l 175 946 l 124 500 m 388 421 l 332 363 l 128 363 l 85 418 l 140 476 l 346 476 l 388 421 m 654 -187 l 599 -246 l 394 -246 l 351 -190 l 407 -132 l 613 -132 l 654 -187 m 319 -187 l 264 -246 l 58 -246 l 17 -190 l 72 -132 l 276 -132 l 319 -187 m 458 500 l 408 439 l 367 500 l 418 946 l 469 1007 l 508 946 l 458 500 m 390 -107 l 339 -169 l 299 -107 l 349 338 l 400 399 l 442 338 l 390 -107 z "},"%":{"ha":889,"x_min":32,"x_max":775,"o":"m 719 801 l 515 497 l 475 497 l 488 617 l 713 950 l 736 950 l 719 801 m 319 222 l 96 -111 l 71 -111 l 88 36 l 292 342 l 333 342 l 319 222 m 457 1029 l 401 971 l 196 971 l 153 1026 l 208 1085 l 414 1085 l 457 1029 m 458 500 l 408 439 l 367 500 l 418 946 l 469 1007 l 508 946 l 458 500 m 724 421 l 668 363 l 463 363 l 419 418 l 475 476 l 681 476 l 724 421 m 725 -107 l 675 -169 l 635 -107 l 685 338 l 736 399 l 775 338 l 725 -107 m 124 500 l 72 439 l 32 500 l 82 946 l 133 1007 l 175 946 l 124 500 m 388 421 l 332 363 l 128 363 l 85 418 l 140 476 l 346 476 l 388 421 m 390 -107 l 339 -169 l 299 -107 l 349 338 l 400 399 l 442 338 l 390 -107 m 654 -187 l 599 -246 l 394 -246 l 351 -190 l 407 -132 l 613 -132 l 654 -187 z "},"&":{"ha":889,"x_min":-36,"x_max":668,"o":"m 457 1029 l 401 971 l 196 971 l 153 1026 l 208 1085 l 414 1085 l 457 1029 m 458 500 l 408 439 l 367 500 l 418 946 l 469 1007 l 508 946 l 458 500 m 124 500 l 72 439 l 32 500 l 82 946 l 133 1007 l 175 946 l 124 500 m 388 421 l 332 363 l 128 363 l 85 418 l 140 476 l 346 476 l 388 421 m 390 -107 l 339 -169 l 299 -107 l 349 338 l 400 399 l 442 338 l 390 -107 m 654 -187 l 599 -246 l 394 -246 l 351 -190 l 407 -132 l 613 -132 l 654 -187 m 56 -107 l 3 -169 l -36 -107 l 14 338 l 65 399 l 106 338 l 56 -107 m 319 -187 l 264 -246 l 58 -246 l 17 -190 l 72 -132 l 276 -132 l 319 -187 m 654 222 l 431 -111 l 407 -111 l 424 36 l 628 342 l 668 342 l 654 222 z "},"'":{"ha":889,"x_min":349,"x_max":458,"o":"m 440 778 l 389 717 l 349 778 l 368 946 l 419 1007 l 458 946 l 440 778 z "},"(":{"ha":889,"x_min":299,"x_max":792,"o":"m 792 1029 l 736 971 l 531 971 l 488 1026 l 543 1085 l 749 1085 l 792 1029 m 458 500 l 408 439 l 367 500 l 418 946 l 469 1007 l 508 946 l 458 500 m 390 -107 l 339 -169 l 299 -107 l 349 338 l 400 399 l 442 338 l 390 -107 m 654 -187 l 599 -246 l 394 -246 l 351 -190 l 407 -132 l 613 -132 l 654 -187 z "},")":{"ha":889,"x_min":17,"x_max":508,"o":"m 457 1029 l 401 971 l 196 971 l 153 1026 l 208 1085 l 414 1085 l 457 1029 m 458 500 l 408 439 l 367 500 l 418 946 l 469 1007 l 508 946 l 458 500 m 390 -107 l 339 -169 l 299 -107 l 349 338 l 400 399 l 442 338 l 390 -107 m 319 -187 l 264 -246 l 58 -246 l 17 -190 l 72 -132 l 276 -132 l 319 -187 z "},"*":{"ha":889,"x_min":71,"x_max":736,"o":"m 719 801 l 515 497 l 475 497 l 488 617 l 713 950 l 736 950 l 719 801 m 350 497 l 310 497 l 175 801 l 192 950 l 215 950 l 364 617 l 350 497 m 617 -111 l 592 -111 l 444 222 l 458 342 l 497 342 l 633 36 l 617 -111 m 319 222 l 96 -111 l 71 -111 l 88 36 l 292 342 l 333 342 l 319 222 z "},"+":{"ha":889,"x_min":85,"x_max":724,"o":"m 458 500 l 408 439 l 367 500 l 418 946 l 469 1007 l 508 946 l 458 500 m 724 421 l 668 363 l 463 363 l 419 418 l 475 476 l 681 476 l 724 421 m 388 421 l 332 363 l 128 363 l 85 418 l 140 476 l 346 476 l 388 421 m 390 -107 l 339 -169 l 299 -107 l 349 338 l 400 399 l 442 338 l 390 -107 z "},",":{"ha":889,"x_min":324,"x_max":493,"o":"m 489 -144 q 456 -253 483 -189 q 388 -329 421 -329 q 339 -257 357 -329 q 329 -144 324 -196 q 358 -76 333 -106 q 419 -46 382 -46 q 475 -76 457 -46 q 489 -144 493 -106 z "},"-":{"ha":889,"x_min":85,"x_max":724,"o":"m 724 421 l 668 363 l 463 363 l 419 418 l 475 476 l 681 476 l 724 421 m 388 421 l 332 363 l 128 363 l 85 418 l 140 476 l 346 476 l 388 421 z "},".":{"ha":889,"x_min":319,"x_max":489,"o":"m 485 -144 q 454 -214 481 -182 q 392 -246 428 -246 q 338 -211 357 -246 q 324 -144 319 -181 q 353 -76 328 -106 q 415 -46 378 -46 q 471 -76 453 -46 q 485 -144 489 -106 z "},"/":{"ha":889,"x_min":71,"x_max":736,"o":"m 719 801 l 515 497 l 475 497 l 488 617 l 713 950 l 736 950 l 719 801 m 319 222 l 96 -111 l 71 -111 l 88 36 l 292 342 l 333 342 l 319 222 z "},":":{"ha":889,"x_min":299,"x_max":510,"o":"m 506 604 q 478 538 501 565 q 414 506 451 506 q 357 538 376 506 q 344 604 340 565 q 374 674 349 643 q 436 706 399 706 q 492 674 474 706 q 506 604 510 643 m 464 235 q 433 164 460 196 q 371 132 407 132 q 315 167 335 132 q 303 235 299 197 q 333 304 308 275 q 394 333 357 333 q 449 302 431 333 q 464 235 467 271 z "},";":{"ha":889,"x_min":304,"x_max":514,"o":"m 510 604 q 482 538 506 565 q 418 506 456 506 q 361 538 381 506 q 349 604 344 565 q 378 674 353 643 q 442 706 404 706 q 497 671 478 706 q 510 604 514 642 m 468 235 q 432 122 463 188 q 367 49 397 49 q 318 125 336 49 q 308 235 304 188 q 336 304 313 275 q 399 333 360 333 q 453 303 435 333 q 468 235 472 272 z "},"<":{"ha":889,"x_min":444,"x_max":736,"o":"m 719 801 l 515 497 l 475 497 l 488 617 l 713 950 l 736 950 l 719 801 m 617 -111 l 592 -111 l 444 222 l 458 342 l 497 342 l 633 36 l 617 -111 z "},"=":{"ha":889,"x_min":69,"x_max":739,"o":"m 739 560 l 683 501 l 478 501 l 436 557 l 492 615 l 696 615 l 739 560 m 403 560 l 347 501 l 143 501 l 100 557 l 156 615 l 361 615 l 403 560 m 708 282 l 653 224 l 447 224 l 404 279 l 460 338 l 664 338 l 708 282 m 372 282 l 317 224 l 113 224 l 69 279 l 125 338 l 331 338 l 372 282 z "},">":{"ha":889,"x_min":71,"x_max":364,"o":"m 350 497 l 310 497 l 175 801 l 192 950 l 215 950 l 364 617 l 350 497 m 319 222 l 96 -111 l 71 -111 l 88 36 l 292 342 l 333 342 l 319 222 z "},"?":{"ha":889,"x_min":149,"x_max":840,"o":"m 786 1029 l 731 971 l 526 971 l 483 1026 l 539 1085 l 744 1085 l 786 1029 m 790 500 l 738 439 l 697 500 l 749 949 l 800 1010 l 840 949 l 790 500 m 453 1029 l 397 971 l 192 971 l 149 1026 l 204 1085 l 408 1085 l 453 1029 m 719 421 l 664 363 l 458 363 l 415 418 l 471 476 l 675 476 l 719 421 m 386 -107 l 335 -169 l 294 -107 l 344 338 l 397 399 l 436 338 l 386 -107 z "},"@":{"ha":889,"x_min":-36,"x_max":844,"o":"m 792 1029 l 736 971 l 531 971 l 488 1026 l 543 1085 l 749 1085 l 792 1029 m 794 500 l 742 439 l 703 500 l 753 949 l 804 1010 l 844 949 l 794 500 m 719 801 l 515 497 l 475 497 l 488 617 l 713 950 l 736 950 l 719 801 m 457 1029 l 401 971 l 196 971 l 153 1026 l 208 1085 l 414 1085 l 457 1029 m 458 500 l 408 439 l 367 500 l 418 946 l 469 1007 l 508 946 l 458 500 m 724 421 l 668 363 l 463 363 l 419 418 l 475 476 l 681 476 l 724 421 m 725 -107 l 675 -169 l 635 -107 l 685 338 l 736 399 l 775 338 l 725 -107 m 350 497 l 310 497 l 175 801 l 192 950 l 215 950 l 364 617 l 350 497 m 617 -111 l 592 -111 l 444 222 l 458 342 l 497 342 l 633 36 l 617 -111 m 124 500 l 72 439 l 32 500 l 82 946 l 133 1007 l 175 946 l 124 500 m 388 421 l 332 363 l 128 363 l 85 418 l 140 476 l 346 476 l 388 421 m 390 -107 l 339 -169 l 299 -107 l 349 338 l 400 399 l 442 338 l 390 -107 m 654 -187 l 599 -246 l 394 -246 l 351 -190 l 407 -132 l 613 -132 l 654 -187 m 319 222 l 96 -111 l 71 -111 l 88 36 l 292 342 l 333 342 l 319 222 m 56 -107 l 3 -169 l -36 -107 l 14 338 l 65 399 l 106 338 l 56 -107 m 319 -187 l 264 -246 l 58 -246 l 17 -190 l 72 -132 l 276 -132 l 319 -187 z "},"A":{"ha":889,"x_min":-33,"x_max":779,"o":"m 689 497 l 647 497 l 513 801 l 529 950 l 553 950 l 703 617 l 689 497 m 726 421 l 671 363 l 465 363 l 424 418 l 479 476 l 683 476 l 726 421 m 729 -107 l 678 -169 l 636 -107 l 688 338 l 739 399 l 779 338 l 729 -107 m 388 801 l 183 497 l 143 497 l 157 617 l 381 950 l 404 950 l 388 801 m 392 421 l 336 363 l 131 363 l 88 418 l 143 476 l 349 476 l 392 421 m 58 -107 l 7 -169 l -33 -107 l 17 338 l 69 399 l 108 338 l 58 -107 z "},"B":{"ha":889,"x_min":-36,"x_max":844,"o":"m 792 1029 l 736 971 l 531 971 l 488 1026 l 543 1085 l 749 1085 l 792 1029 m 794 500 l 742 439 l 703 500 l 753 949 l 804 1010 l 844 949 l 794 500 m 457 1029 l 401 971 l 196 971 l 153 1026 l 208 1085 l 414 1085 l 457 1029 m 724 421 l 668 363 l 463 363 l 419 418 l 475 476 l 681 476 l 724 421 m 725 -107 l 675 -169 l 635 -107 l 685 338 l 736 399 l 775 338 l 725 -107 m 124 500 l 72 439 l 32 500 l 82 946 l 133 1007 l 175 946 l 124 500 m 388 421 l 332 363 l 128 363 l 85 418 l 140 476 l 346 476 l 388 421 m 654 -187 l 599 -246 l 394 -246 l 351 -190 l 407 -132 l 613 -132 l 654 -187 m 56 -107 l 3 -169 l -36 -107 l 14 338 l 65 399 l 106 338 l 56 -107 m 319 -187 l 264 -246 l 58 -246 l 17 -190 l 72 -132 l 276 -132 l 319 -187 z "},"C":{"ha":889,"x_min":-36,"x_max":792,"o":"m 792 1029 l 736 971 l 531 971 l 488 1026 l 543 1085 l 749 1085 l 792 1029 m 457 1029 l 401 971 l 196 971 l 153 1026 l 208 1085 l 414 1085 l 457 1029 m 124 500 l 72 439 l 32 500 l 82 946 l 133 1007 l 175 946 l 124 500 m 654 -187 l 599 -246 l 394 -246 l 351 -190 l 407 -132 l 613 -132 l 654 -187 m 56 -107 l 3 -169 l -36 -107 l 14 338 l 65 399 l 106 338 l 56 -107 m 319 -187 l 264 -246 l 58 -246 l 17 -190 l 72 -132 l 276 -132 l 319 -187 z "},"D":{"ha":889,"x_min":-36,"x_max":699,"o":"m 686 497 l 646 497 l 508 801 l 525 950 l 550 950 l 699 617 l 686 497 m 457 1029 l 401 971 l 196 971 l 153 1026 l 208 1085 l 414 1085 l 457 1029 m 654 222 l 431 -111 l 407 -111 l 424 36 l 628 342 l 668 342 l 654 222 m 124 500 l 72 439 l 32 500 l 82 946 l 133 1007 l 175 946 l 124 500 m 56 -107 l 3 -169 l -36 -107 l 14 338 l 65 399 l 106 338 l 56 -107 m 319 -187 l 264 -246 l 58 -246 l 17 -190 l 72 -132 l 276 -132 l 319 -187 z "},"E":{"ha":889,"x_min":-36,"x_max":792,"o":"m 792 1029 l 736 971 l 531 971 l 488 1026 l 543 1085 l 749 1085 l 792 1029 m 457 1029 l 401 971 l 196 971 l 153 1026 l 208 1085 l 414 1085 l 457 1029 m 724 421 l 668 363 l 463 363 l 419 418 l 475 476 l 681 476 l 724 421 m 124 500 l 72 439 l 32 500 l 82 946 l 133 1007 l 175 946 l 124 500 m 388 421 l 332 363 l 128 363 l 85 418 l 140 476 l 346 476 l 388 421 m 654 -187 l 599 -246 l 394 -246 l 351 -190 l 407 -132 l 613 -132 l 654 -187 m 56 -107 l 3 -169 l -36 -107 l 14 338 l 65 399 l 106 338 l 56 -107 m 319 -187 l 264 -246 l 58 -246 l 17 -190 l 72 -132 l 276 -132 l 319 -187 z "},"F":{"ha":889,"x_min":-42,"x_max":786,"o":"m 786 1029 l 731 971 l 526 971 l 483 1026 l 539 1085 l 744 1085 l 786 1029 m 453 1029 l 397 971 l 192 971 l 149 1026 l 204 1085 l 408 1085 l 453 1029 m 719 421 l 664 363 l 458 363 l 415 418 l 471 476 l 675 476 l 719 421 m 119 500 l 68 439 l 28 500 l 78 946 l 131 1007 l 169 946 l 119 500 m 383 421 l 328 363 l 124 363 l 81 418 l 136 476 l 342 476 l 383 421 m 51 -107 l 0 -169 l -42 -107 l 10 338 l 61 399 l 101 338 l 51 -107 z "},"G":{"ha":889,"x_min":-36,"x_max":792,"o":"m 792 1029 l 736 971 l 531 971 l 488 1026 l 543 1085 l 749 1085 l 792 1029 m 457 1029 l 401 971 l 196 971 l 153 1026 l 208 1085 l 414 1085 l 457 1029 m 724 421 l 668 363 l 463 363 l 419 418 l 475 476 l 681 476 l 724 421 m 725 -107 l 675 -169 l 635 -107 l 685 338 l 736 399 l 775 338 l 725 -107 m 124 500 l 72 439 l 32 500 l 82 946 l 133 1007 l 175 946 l 124 500 m 654 -187 l 599 -246 l 394 -246 l 351 -190 l 407 -132 l 613 -132 l 654 -187 m 56 -107 l 3 -169 l -36 -107 l 14 338 l 65 399 l 106 338 l 56 -107 m 319 -187 l 264 -246 l 58 -246 l 17 -190 l 72 -132 l 276 -132 l 319 -187 z "},"H":{"ha":889,"x_min":-36,"x_max":844,"o":"m 793 500 l 742 439 l 703 500 l 753 949 l 804 1010 l 844 949 l 793 500 m 724 421 l 668 363 l 463 363 l 419 418 l 475 476 l 681 476 l 724 421 m 725 -107 l 674 -169 l 633 -107 l 683 338 l 736 399 l 775 338 l 725 -107 m 124 500 l 72 439 l 32 500 l 82 946 l 133 1007 l 174 946 l 124 500 m 388 421 l 332 363 l 128 363 l 85 418 l 140 476 l 346 476 l 388 421 m 56 -107 l 3 -169 l -36 -107 l 14 338 l 65 399 l 106 338 l 56 -107 z "},"I":{"ha":889,"x_min":17,"x_max":792,"o":"m 792 1029 l 736 971 l 531 971 l 488 1026 l 543 1085 l 749 1085 l 792 1029 m 457 1029 l 401 971 l 196 971 l 153 1026 l 208 1085 l 414 1085 l 457 1029 m 458 500 l 408 439 l 367 500 l 418 946 l 469 1007 l 508 946 l 458 500 m 390 -107 l 339 -169 l 299 -107 l 349 338 l 400 399 l 442 338 l 390 -107 m 654 -187 l 599 -246 l 394 -246 l 351 -190 l 407 -132 l 613 -132 l 654 -187 m 319 -187 l 264 -246 l 58 -246 l 17 -190 l 72 -132 l 276 -132 l 319 -187 z "},"J":{"ha":889,"x_min":-36,"x_max":844,"o":"m 792 1029 l 736 971 l 531 971 l 488 1026 l 543 1085 l 749 1085 l 792 1029 m 794 500 l 742 439 l 703 500 l 753 949 l 804 1010 l 844 949 l 794 500 m 725 -107 l 675 -169 l 635 -107 l 685 338 l 736 399 l 775 338 l 725 -107 m 654 -187 l 599 -246 l 394 -246 l 351 -190 l 407 -132 l 613 -132 l 654 -187 m 56 -107 l 3 -169 l -36 -107 l 14 338 l 65 399 l 106 338 l 56 -107 m 319 -187 l 264 -246 l 58 -246 l 17 -190 l 72 -132 l 276 -132 l 319 -187 z "},"K":{"ha":889,"x_min":-36,"x_max":736,"o":"m 719 801 l 515 497 l 475 497 l 488 617 l 713 950 l 736 950 l 719 801 m 617 -111 l 592 -111 l 444 222 l 458 342 l 497 342 l 633 36 l 617 -111 m 124 500 l 72 439 l 32 500 l 82 946 l 133 1007 l 175 946 l 124 500 m 388 421 l 332 363 l 128 363 l 85 418 l 140 476 l 346 476 l 388 421 m 56 -107 l 3 -169 l -36 -107 l 14 338 l 65 399 l 106 338 l 56 -107 z "},"L":{"ha":889,"x_min":-32,"x_max":658,"o":"m 128 500 l 76 439 l 36 500 l 86 946 l 138 1007 l 178 946 l 128 500 m 658 -187 l 603 -246 l 399 -246 l 356 -190 l 411 -132 l 617 -132 l 658 -187 m 60 -107 l 8 -169 l -32 -107 l 18 338 l 69 399 l 110 338 l 60 -107 m 325 -187 l 269 -246 l 64 -246 l 21 -190 l 76 -132 l 281 -132 l 325 -187 z "},"M":{"ha":889,"x_min":-36,"x_max":844,"o":"m 793 500 l 742 439 l 703 500 l 753 949 l 804 1010 l 844 949 l 793 500 m 719 801 l 515 497 l 475 497 l 488 617 l 713 950 l 736 950 l 719 801 m 725 -107 l 674 -169 l 633 -107 l 683 338 l 736 399 l 775 338 l 725 -107 m 350 497 l 310 497 l 174 801 l 190 950 l 214 950 l 364 617 l 350 497 m 124 500 l 72 439 l 32 500 l 82 946 l 133 1007 l 174 946 l 124 500 m 56 -107 l 3 -169 l -36 -107 l 14 338 l 65 399 l 106 338 l 56 -107 z "},"N":{"ha":889,"x_min":-36,"x_max":844,"o":"m 793 500 l 742 439 l 703 500 l 753 949 l 804 1010 l 844 949 l 793 500 m 725 -107 l 674 -169 l 633 -107 l 683 338 l 736 399 l 775 338 l 725 -107 m 350 497 l 310 497 l 174 801 l 190 950 l 214 950 l 364 617 l 350 497 m 617 -111 l 592 -111 l 443 222 l 457 342 l 497 342 l 633 36 l 617 -111 m 124 500 l 72 439 l 32 500 l 82 946 l 133 1007 l 174 946 l 124 500 m 56 -107 l 3 -169 l -36 -107 l 14 338 l 65 399 l 106 338 l 56 -107 z "},"O":{"ha":889,"x_min":-36,"x_max":844,"o":"m 792 1029 l 736 971 l 531 971 l 488 1026 l 543 1085 l 749 1085 l 792 1029 m 794 500 l 742 439 l 703 500 l 753 949 l 804 1010 l 844 949 l 794 500 m 457 1029 l 401 971 l 196 971 l 153 1026 l 208 1085 l 414 1085 l 457 1029 m 725 -107 l 675 -169 l 635 -107 l 685 338 l 736 399 l 775 338 l 725 -107 m 124 500 l 72 439 l 32 500 l 82 946 l 133 1007 l 175 946 l 124 500 m 654 -187 l 599 -246 l 394 -246 l 351 -190 l 407 -132 l 613 -132 l 654 -187 m 56 -107 l 3 -169 l -36 -107 l 14 338 l 65 399 l 106 338 l 56 -107 m 319 -187 l 264 -246 l 58 -246 l 17 -190 l 72 -132 l 276 -132 l 319 -187 z "},"P":{"ha":889,"x_min":-42,"x_max":840,"o":"m 786 1029 l 731 971 l 526 971 l 483 1026 l 539 1085 l 744 1085 l 786 1029 m 790 500 l 738 439 l 697 500 l 749 949 l 800 1010 l 840 949 l 790 500 m 453 1029 l 397 971 l 192 971 l 149 1026 l 204 1085 l 408 1085 l 453 1029 m 719 421 l 664 363 l 458 363 l 415 418 l 471 476 l 675 476 l 719 421 m 119 500 l 68 439 l 28 500 l 78 946 l 131 1007 l 169 946 l 119 500 m 383 421 l 328 363 l 124 363 l 81 418 l 136 476 l 342 476 l 383 421 m 51 -107 l 0 -169 l -42 -107 l 10 338 l 61 399 l 101 338 l 51 -107 z "},"Q":{"ha":889,"x_min":-36,"x_max":844,"o":"m 792 1029 l 736 971 l 531 971 l 488 1026 l 543 1085 l 749 1085 l 792 1029 m 794 500 l 742 439 l 703 500 l 753 949 l 804 1010 l 844 949 l 794 500 m 457 1029 l 401 971 l 196 971 l 153 1026 l 208 1085 l 414 1085 l 457 1029 m 725 -107 l 675 -169 l 635 -107 l 685 338 l 736 399 l 775 338 l 725 -107 m 617 -111 l 592 -111 l 444 222 l 458 342 l 497 342 l 633 36 l 617 -111 m 124 500 l 72 439 l 32 500 l 82 946 l 133 1007 l 175 946 l 124 500 m 654 -187 l 599 -246 l 394 -246 l 351 -190 l 407 -132 l 613 -132 l 654 -187 m 56 -107 l 3 -169 l -36 -107 l 14 338 l 65 399 l 106 338 l 56 -107 m 319 -187 l 264 -246 l 58 -246 l 17 -190 l 72 -132 l 276 -132 l 319 -187 z "},"R":{"ha":889,"x_min":-42,"x_max":840,"o":"m 786 1029 l 731 971 l 526 971 l 483 1026 l 539 1085 l 744 1085 l 786 1029 m 790 500 l 738 439 l 697 500 l 749 949 l 800 1010 l 840 949 l 790 500 m 453 1029 l 397 971 l 192 971 l 149 1026 l 204 1085 l 408 1085 l 453 1029 m 719 421 l 664 363 l 458 363 l 415 418 l 471 476 l 675 476 l 719 421 m 614 -111 l 589 -111 l 440 222 l 453 342 l 493 342 l 631 36 l 614 -111 m 119 500 l 68 439 l 28 500 l 78 946 l 131 1007 l 169 946 l 119 500 m 383 421 l 328 363 l 124 363 l 81 418 l 136 476 l 342 476 l 383 421 m 51 -107 l 0 -169 l -42 -107 l 10 338 l 61 399 l 101 338 l 51 -107 z "},"S":{"ha":889,"x_min":17,"x_max":792,"o":"m 792 1029 l 736 971 l 531 971 l 488 1026 l 543 1085 l 749 1085 l 792 1029 m 457 1029 l 401 971 l 196 971 l 153 1026 l 208 1085 l 414 1085 l 457 1029 m 724 421 l 668 363 l 463 363 l 419 418 l 475 476 l 681 476 l 724 421 m 725 -107 l 675 -169 l 635 -107 l 685 338 l 736 399 l 775 338 l 725 -107 m 124 500 l 72 439 l 32 500 l 82 946 l 133 1007 l 175 946 l 124 500 m 388 421 l 332 363 l 128 363 l 85 418 l 140 476 l 346 476 l 388 421 m 654 -187 l 599 -246 l 394 -246 l 351 -190 l 407 -132 l 613 -132 l 654 -187 m 319 -187 l 264 -246 l 58 -246 l 17 -190 l 72 -132 l 276 -132 l 319 -187 z "},"T":{"ha":889,"x_min":149,"x_max":786,"o":"m 786 1029 l 731 971 l 526 971 l 483 1026 l 539 1085 l 744 1085 l 786 1029 m 453 1029 l 397 971 l 192 971 l 149 1026 l 204 1085 l 408 1085 l 453 1029 m 454 500 l 403 439 l 364 500 l 414 946 l 464 1007 l 504 946 l 454 500 m 386 -107 l 335 -169 l 294 -107 l 344 338 l 397 399 l 436 338 l 386 -107 z "},"U":{"ha":889,"x_min":-32,"x_max":849,"o":"m 797 500 l 747 439 l 707 500 l 757 949 l 808 1010 l 849 949 l 797 500 m 731 -107 l 678 -169 l 638 -107 l 688 338 l 740 399 l 781 338 l 731 -107 m 128 500 l 76 439 l 36 500 l 86 946 l 138 1007 l 178 946 l 128 500 m 658 -187 l 603 -246 l 397 -246 l 356 -190 l 411 -132 l 617 -132 l 658 -187 m 60 -107 l 8 -169 l -32 -107 l 18 338 l 69 399 l 110 338 l 60 -107 m 324 -187 l 268 -246 l 64 -246 l 21 -190 l 75 -132 l 281 -132 l 324 -187 z "},"V":{"ha":889,"x_min":29,"x_max":842,"o":"m 790 500 l 739 439 l 699 500 l 749 949 l 801 1010 l 842 949 l 790 500 m 651 222 l 428 -111 l 403 -111 l 419 36 l 625 342 l 664 342 l 651 222 m 119 500 l 69 439 l 29 500 l 79 946 l 131 1007 l 169 946 l 119 500 m 279 -111 l 254 -111 l 106 222 l 119 342 l 158 342 l 296 36 l 279 -111 z "},"W":{"ha":889,"x_min":-36,"x_max":844,"o":"m 793 500 l 742 439 l 703 500 l 753 949 l 804 1010 l 844 949 l 793 500 m 725 -107 l 674 -169 l 633 -107 l 683 338 l 736 399 l 775 338 l 725 -107 m 617 -111 l 592 -111 l 443 222 l 457 342 l 497 342 l 633 36 l 617 -111 m 124 500 l 72 439 l 32 500 l 82 946 l 133 1007 l 174 946 l 124 500 m 319 222 l 96 -111 l 71 -111 l 88 36 l 292 342 l 333 342 l 319 222 m 56 -107 l 3 -169 l -36 -107 l 14 338 l 65 399 l 106 338 l 56 -107 z "},"X":{"ha":889,"x_min":71,"x_max":736,"o":"m 719 801 l 515 497 l 475 497 l 488 617 l 713 950 l 736 950 l 719 801 m 350 497 l 310 497 l 175 801 l 192 950 l 215 950 l 364 617 l 350 497 m 617 -111 l 592 -111 l 444 222 l 458 342 l 497 342 l 633 36 l 617 -111 m 319 222 l 96 -111 l 71 -111 l 88 36 l 292 342 l 333 342 l 319 222 z "},"Y":{"ha":889,"x_min":178,"x_max":740,"o":"m 724 801 l 519 497 l 478 497 l 492 617 l 715 950 l 740 950 l 724 801 m 353 497 l 314 497 l 178 801 l 193 950 l 218 950 l 367 617 l 353 497 m 393 -107 l 342 -169 l 303 -107 l 353 338 l 403 399 l 443 338 l 393 -107 z "},"Z":{"ha":889,"x_min":17,"x_max":792,"o":"m 792 1029 l 736 971 l 531 971 l 488 1026 l 543 1085 l 749 1085 l 792 1029 m 719 801 l 515 497 l 475 497 l 488 617 l 713 950 l 736 950 l 719 801 m 457 1029 l 401 971 l 196 971 l 153 1026 l 208 1085 l 414 1085 l 457 1029 m 654 -187 l 599 -246 l 394 -246 l 351 -190 l 407 -132 l 613 -132 l 654 -187 m 319 222 l 96 -111 l 71 -111 l 88 36 l 292 342 l 333 342 l 319 222 m 319 -187 l 264 -246 l 58 -246 l 17 -190 l 72 -132 l 276 -132 l 319 -187 z "},"[":{"ha":889,"x_min":299,"x_max":792,"o":"m 792 1029 l 736 971 l 531 971 l 488 1026 l 543 1085 l 749 1085 l 792 1029 m 458 500 l 408 439 l 367 500 l 418 946 l 469 1007 l 508 946 l 458 500 m 390 -107 l 339 -169 l 299 -107 l 349 338 l 400 399 l 442 338 l 390 -107 m 654 -187 l 599 -246 l 394 -246 l 351 -190 l 407 -132 l 613 -132 l 654 -187 z "},"\\":{"ha":889,"x_min":175,"x_max":633,"o":"m 350 497 l 310 497 l 175 801 l 192 950 l 215 950 l 364 617 l 350 497 m 617 -111 l 592 -111 l 444 222 l 458 342 l 497 342 l 633 36 l 617 -111 z "},"]":{"ha":889,"x_min":17,"x_max":508,"o":"m 457 1029 l 401 971 l 196 971 l 153 1026 l 208 1085 l 414 1085 l 457 1029 m 458 500 l 408 439 l 367 500 l 418 946 l 469 1007 l 508 946 l 458 500 m 390 -107 l 339 -169 l 299 -107 l 349 338 l 400 399 l 442 338 l 390 -107 m 319 -187 l 264 -246 l 58 -246 l 17 -190 l 72 -132 l 276 -132 l 319 -187 z "},"^":{"ha":889,"x_min":106,"x_max":664,"o":"m 651 497 l 611 497 l 475 801 l 492 950 l 515 950 l 664 617 l 651 497 m 351 801 l 146 497 l 106 497 l 119 617 l 342 950 l 367 950 l 351 801 z "},"_":{"ha":889,"x_min":85,"x_max":724,"o":"m 724 -187 l 668 -246 l 463 -246 l 419 -190 l 475 -132 l 681 -132 l 724 -187 m 388 -187 l 332 -246 l 128 -246 l 85 -190 l 140 -132 l 346 -132 l 388 -187 z "},"`":{"ha":889,"x_min":140,"x_max":331,"o":"m 317 497 l 275 497 l 140 801 l 157 950 l 181 950 l 331 617 l 317 497 z "},"a":{"ha":889,"x_min":-33,"x_max":779,"o":"m 689 497 l 647 497 l 513 801 l 529 950 l 553 950 l 703 617 l 689 497 m 726 421 l 671 363 l 465 363 l 424 418 l 479 476 l 683 476 l 726 421 m 729 -107 l 678 -169 l 636 -107 l 688 338 l 739 399 l 779 338 l 729 -107 m 388 801 l 183 497 l 143 497 l 157 617 l 381 950 l 404 950 l 388 801 m 392 421 l 336 363 l 131 363 l 88 418 l 143 476 l 349 476 l 392 421 m 58 -107 l 7 -169 l -33 -107 l 17 338 l 69 399 l 108 338 l 58 -107 z "},"b":{"ha":889,"x_min":-36,"x_max":844,"o":"m 792 1029 l 736 971 l 531 971 l 488 1026 l 543 1085 l 749 1085 l 792 1029 m 794 500 l 742 439 l 703 500 l 753 949 l 804 1010 l 844 949 l 794 500 m 457 1029 l 401 971 l 196 971 l 153 1026 l 208 1085 l 414 1085 l 457 1029 m 724 421 l 668 363 l 463 363 l 419 418 l 475 476 l 681 476 l 724 421 m 725 -107 l 675 -169 l 635 -107 l 685 338 l 736 399 l 775 338 l 725 -107 m 124 500 l 72 439 l 32 500 l 82 946 l 133 1007 l 175 946 l 124 500 m 388 421 l 332 363 l 128 363 l 85 418 l 140 476 l 346 476 l 388 421 m 654 -187 l 599 -246 l 394 -246 l 351 -190 l 407 -132 l 613 -132 l 654 -187 m 56 -107 l 3 -169 l -36 -107 l 14 338 l 65 399 l 106 338 l 56 -107 m 319 -187 l 264 -246 l 58 -246 l 17 -190 l 72 -132 l 276 -132 l 319 -187 z "},"c":{"ha":889,"x_min":-36,"x_max":792,"o":"m 792 1029 l 736 971 l 531 971 l 488 1026 l 543 1085 l 749 1085 l 792 1029 m 457 1029 l 401 971 l 196 971 l 153 1026 l 208 1085 l 414 1085 l 457 1029 m 124 500 l 72 439 l 32 500 l 82 946 l 133 1007 l 175 946 l 124 500 m 654 -187 l 599 -246 l 394 -246 l 351 -190 l 407 -132 l 613 -132 l 654 -187 m 56 -107 l 3 -169 l -36 -107 l 14 338 l 65 399 l 106 338 l 56 -107 m 319 -187 l 264 -246 l 58 -246 l 17 -190 l 72 -132 l 276 -132 l 319 -187 z "},"d":{"ha":889,"x_min":-36,"x_max":699,"o":"m 686 497 l 646 497 l 508 801 l 525 950 l 550 950 l 699 617 l 686 497 m 457 1029 l 401 971 l 196 971 l 153 1026 l 208 1085 l 414 1085 l 457 1029 m 654 222 l 431 -111 l 407 -111 l 424 36 l 628 342 l 668 342 l 654 222 m 124 500 l 72 439 l 32 500 l 82 946 l 133 1007 l 175 946 l 124 500 m 56 -107 l 3 -169 l -36 -107 l 14 338 l 65 399 l 106 338 l 56 -107 m 319 -187 l 264 -246 l 58 -246 l 17 -190 l 72 -132 l 276 -132 l 319 -187 z "},"e":{"ha":889,"x_min":-36,"x_max":792,"o":"m 792 1029 l 736 971 l 531 971 l 488 1026 l 543 1085 l 749 1085 l 792 1029 m 457 1029 l 401 971 l 196 971 l 153 1026 l 208 1085 l 414 1085 l 457 1029 m 724 421 l 668 363 l 463 363 l 419 418 l 475 476 l 681 476 l 724 421 m 124 500 l 72 439 l 32 500 l 82 946 l 133 1007 l 175 946 l 124 500 m 388 421 l 332 363 l 128 363 l 85 418 l 140 476 l 346 476 l 388 421 m 654 -187 l 599 -246 l 394 -246 l 351 -190 l 407 -132 l 613 -132 l 654 -187 m 56 -107 l 3 -169 l -36 -107 l 14 338 l 65 399 l 106 338 l 56 -107 m 319 -187 l 264 -246 l 58 -246 l 17 -190 l 72 -132 l 276 -132 l 319 -187 z "},"f":{"ha":889,"x_min":-42,"x_max":786,"o":"m 786 1029 l 731 971 l 526 971 l 483 1026 l 539 1085 l 744 1085 l 786 1029 m 453 1029 l 397 971 l 192 971 l 149 1026 l 204 1085 l 408 1085 l 453 1029 m 719 421 l 664 363 l 458 363 l 415 418 l 471 476 l 675 476 l 719 421 m 119 500 l 68 439 l 28 500 l 78 946 l 131 1007 l 169 946 l 119 500 m 383 421 l 328 363 l 124 363 l 81 418 l 136 476 l 342 476 l 383 421 m 51 -107 l 0 -169 l -42 -107 l 10 338 l 61 399 l 101 338 l 51 -107 z "},"g":{"ha":889,"x_min":-36,"x_max":792,"o":"m 792 1029 l 736 971 l 531 971 l 488 1026 l 543 1085 l 749 1085 l 792 1029 m 457 1029 l 401 971 l 196 971 l 153 1026 l 208 1085 l 414 1085 l 457 1029 m 724 421 l 668 363 l 463 363 l 419 418 l 475 476 l 681 476 l 724 421 m 725 -107 l 675 -169 l 635 -107 l 685 338 l 736 399 l 775 338 l 725 -107 m 124 500 l 72 439 l 32 500 l 82 946 l 133 1007 l 175 946 l 124 500 m 654 -187 l 599 -246 l 394 -246 l 351 -190 l 407 -132 l 613 -132 l 654 -187 m 56 -107 l 3 -169 l -36 -107 l 14 338 l 65 399 l 106 338 l 56 -107 m 319 -187 l 264 -246 l 58 -246 l 17 -190 l 72 -132 l 276 -132 l 319 -187 z "},"h":{"ha":889,"x_min":-36,"x_max":844,"o":"m 793 500 l 742 439 l 703 500 l 753 949 l 804 1010 l 844 949 l 793 500 m 724 421 l 668 363 l 463 363 l 419 418 l 475 476 l 681 476 l 724 421 m 725 -107 l 674 -169 l 633 -107 l 683 338 l 736 399 l 775 338 l 725 -107 m 124 500 l 72 439 l 32 500 l 82 946 l 133 1007 l 174 946 l 124 500 m 388 421 l 332 363 l 128 363 l 85 418 l 140 476 l 346 476 l 388 421 m 56 -107 l 3 -169 l -36 -107 l 14 338 l 65 399 l 106 338 l 56 -107 z "},"i":{"ha":889,"x_min":17,"x_max":792,"o":"m 792 1029 l 736 971 l 531 971 l 488 1026 l 543 1085 l 749 1085 l 792 1029 m 457 1029 l 401 971 l 196 971 l 153 1026 l 208 1085 l 414 1085 l 457 1029 m 458 500 l 408 439 l 367 500 l 418 946 l 469 1007 l 508 946 l 458 500 m 390 -107 l 339 -169 l 299 -107 l 349 338 l 400 399 l 442 338 l 390 -107 m 654 -187 l 599 -246 l 394 -246 l 351 -190 l 407 -132 l 613 -132 l 654 -187 m 319 -187 l 264 -246 l 58 -246 l 17 -190 l 72 -132 l 276 -132 l 319 -187 z "},"j":{"ha":889,"x_min":-36,"x_max":844,"o":"m 792 1029 l 736 971 l 531 971 l 488 1026 l 543 1085 l 749 1085 l 792 1029 m 794 500 l 742 439 l 703 500 l 753 949 l 804 1010 l 844 949 l 794 500 m 725 -107 l 675 -169 l 635 -107 l 685 338 l 736 399 l 775 338 l 725 -107 m 654 -187 l 599 -246 l 394 -246 l 351 -190 l 407 -132 l 613 -132 l 654 -187 m 56 -107 l 3 -169 l -36 -107 l 14 338 l 65 399 l 106 338 l 56 -107 m 319 -187 l 264 -246 l 58 -246 l 17 -190 l 72 -132 l 276 -132 l 319 -187 z "},"k":{"ha":889,"x_min":-36,"x_max":736,"o":"m 719 801 l 515 497 l 475 497 l 488 617 l 713 950 l 736 950 l 719 801 m 617 -111 l 592 -111 l 444 222 l 458 342 l 497 342 l 633 36 l 617 -111 m 124 500 l 72 439 l 32 500 l 82 946 l 133 1007 l 175 946 l 124 500 m 388 421 l 332 363 l 128 363 l 85 418 l 140 476 l 346 476 l 388 421 m 56 -107 l 3 -169 l -36 -107 l 14 338 l 65 399 l 106 338 l 56 -107 z "},"l":{"ha":889,"x_min":-32,"x_max":658,"o":"m 128 500 l 76 439 l 36 500 l 86 946 l 138 1007 l 178 946 l 128 500 m 658 -187 l 603 -246 l 399 -246 l 356 -190 l 411 -132 l 617 -132 l 658 -187 m 60 -107 l 8 -169 l -32 -107 l 18 338 l 69 399 l 110 338 l 60 -107 m 325 -187 l 269 -246 l 64 -246 l 21 -190 l 76 -132 l 281 -132 l 325 -187 z "},"m":{"ha":889,"x_min":-36,"x_max":844,"o":"m 793 500 l 742 439 l 703 500 l 753 949 l 804 1010 l 844 949 l 793 500 m 719 801 l 515 497 l 475 497 l 488 617 l 713 950 l 736 950 l 719 801 m 725 -107 l 674 -169 l 633 -107 l 683 338 l 736 399 l 775 338 l 725 -107 m 350 497 l 310 497 l 174 801 l 190 950 l 214 950 l 364 617 l 350 497 m 124 500 l 72 439 l 32 500 l 82 946 l 133 1007 l 174 946 l 124 500 m 56 -107 l 3 -169 l -36 -107 l 14 338 l 65 399 l 106 338 l 56 -107 z "},"n":{"ha":889,"x_min":-36,"x_max":844,"o":"m 793 500 l 742 439 l 703 500 l 753 949 l 804 1010 l 844 949 l 793 500 m 725 -107 l 674 -169 l 633 -107 l 683 338 l 736 399 l 775 338 l 725 -107 m 350 497 l 310 497 l 174 801 l 190 950 l 214 950 l 364 617 l 350 497 m 617 -111 l 592 -111 l 443 222 l 457 342 l 497 342 l 633 36 l 617 -111 m 124 500 l 72 439 l 32 500 l 82 946 l 133 1007 l 174 946 l 124 500 m 56 -107 l 3 -169 l -36 -107 l 14 338 l 65 399 l 106 338 l 56 -107 z "},"o":{"ha":889,"x_min":-36,"x_max":844,"o":"m 792 1029 l 736 971 l 531 971 l 488 1026 l 543 1085 l 749 1085 l 792 1029 m 794 500 l 742 439 l 703 500 l 753 949 l 804 1010 l 844 949 l 794 500 m 457 1029 l 401 971 l 196 971 l 153 1026 l 208 1085 l 414 1085 l 457 1029 m 725 -107 l 675 -169 l 635 -107 l 685 338 l 736 399 l 775 338 l 725 -107 m 124 500 l 72 439 l 32 500 l 82 946 l 133 1007 l 175 946 l 124 500 m 654 -187 l 599 -246 l 394 -246 l 351 -190 l 407 -132 l 613 -132 l 654 -187 m 56 -107 l 3 -169 l -36 -107 l 14 338 l 65 399 l 106 338 l 56 -107 m 319 -187 l 264 -246 l 58 -246 l 17 -190 l 72 -132 l 276 -132 l 319 -187 z "},"p":{"ha":889,"x_min":-42,"x_max":840,"o":"m 786 1029 l 731 971 l 526 971 l 483 1026 l 539 1085 l 744 1085 l 786 1029 m 790 500 l 738 439 l 697 500 l 749 949 l 800 1010 l 840 949 l 790 500 m 453 1029 l 397 971 l 192 971 l 149 1026 l 204 1085 l 408 1085 l 453 1029 m 719 421 l 664 363 l 458 363 l 415 418 l 471 476 l 675 476 l 719 421 m 119 500 l 68 439 l 28 500 l 78 946 l 131 1007 l 169 946 l 119 500 m 383 421 l 328 363 l 124 363 l 81 418 l 136 476 l 342 476 l 383 421 m 51 -107 l 0 -169 l -42 -107 l 10 338 l 61 399 l 101 338 l 51 -107 z "},"q":{"ha":889,"x_min":-36,"x_max":844,"o":"m 792 1029 l 736 971 l 531 971 l 488 1026 l 543 1085 l 749 1085 l 792 1029 m 794 500 l 742 439 l 703 500 l 753 949 l 804 1010 l 844 949 l 794 500 m 457 1029 l 401 971 l 196 971 l 153 1026 l 208 1085 l 414 1085 l 457 1029 m 725 -107 l 675 -169 l 635 -107 l 685 338 l 736 399 l 775 338 l 725 -107 m 617 -111 l 592 -111 l 444 222 l 458 342 l 497 342 l 633 36 l 617 -111 m 124 500 l 72 439 l 32 500 l 82 946 l 133 1007 l 175 946 l 124 500 m 654 -187 l 599 -246 l 394 -246 l 351 -190 l 407 -132 l 613 -132 l 654 -187 m 56 -107 l 3 -169 l -36 -107 l 14 338 l 65 399 l 106 338 l 56 -107 m 319 -187 l 264 -246 l 58 -246 l 17 -190 l 72 -132 l 276 -132 l 319 -187 z "},"r":{"ha":889,"x_min":-42,"x_max":840,"o":"m 786 1029 l 731 971 l 526 971 l 483 1026 l 539 1085 l 744 1085 l 786 1029 m 790 500 l 738 439 l 697 500 l 749 949 l 800 1010 l 840 949 l 790 500 m 453 1029 l 397 971 l 192 971 l 149 1026 l 204 1085 l 408 1085 l 453 1029 m 719 421 l 664 363 l 458 363 l 415 418 l 471 476 l 675 476 l 719 421 m 614 -111 l 589 -111 l 440 222 l 453 342 l 493 342 l 631 36 l 614 -111 m 119 500 l 68 439 l 28 500 l 78 946 l 131 1007 l 169 946 l 119 500 m 383 421 l 328 363 l 124 363 l 81 418 l 136 476 l 342 476 l 383 421 m 51 -107 l 0 -169 l -42 -107 l 10 338 l 61 399 l 101 338 l 51 -107 z "},"s":{"ha":889,"x_min":17,"x_max":792,"o":"m 792 1029 l 736 971 l 531 971 l 488 1026 l 543 1085 l 749 1085 l 792 1029 m 457 1029 l 401 971 l 196 971 l 153 1026 l 208 1085 l 414 1085 l 457 1029 m 724 421 l 668 363 l 463 363 l 419 418 l 475 476 l 681 476 l 724 421 m 725 -107 l 675 -169 l 635 -107 l 685 338 l 736 399 l 775 338 l 725 -107 m 124 500 l 72 439 l 32 500 l 82 946 l 133 1007 l 175 946 l 124 500 m 388 421 l 332 363 l 128 363 l 85 418 l 140 476 l 346 476 l 388 421 m 654 -187 l 599 -246 l 394 -246 l 351 -190 l 407 -132 l 613 -132 l 654 -187 m 319 -187 l 264 -246 l 58 -246 l 17 -190 l 72 -132 l 276 -132 l 319 -187 z "},"t":{"ha":889,"x_min":149,"x_max":786,"o":"m 786 1029 l 731 971 l 526 971 l 483 1026 l 539 1085 l 744 1085 l 786 1029 m 453 1029 l 397 971 l 192 971 l 149 1026 l 204 1085 l 408 1085 l 453 1029 m 454 500 l 403 439 l 364 500 l 414 946 l 464 1007 l 504 946 l 454 500 m 386 -107 l 335 -169 l 294 -107 l 344 338 l 397 399 l 436 338 l 386 -107 z "},"u":{"ha":889,"x_min":-32,"x_max":849,"o":"m 797 500 l 747 439 l 707 500 l 757 949 l 808 1010 l 849 949 l 797 500 m 731 -107 l 678 -169 l 638 -107 l 688 338 l 740 399 l 781 338 l 731 -107 m 128 500 l 76 439 l 36 500 l 86 946 l 138 1007 l 178 946 l 128 500 m 658 -187 l 603 -246 l 397 -246 l 356 -190 l 411 -132 l 617 -132 l 658 -187 m 60 -107 l 8 -169 l -32 -107 l 18 338 l 69 399 l 110 338 l 60 -107 m 324 -187 l 268 -246 l 64 -246 l 21 -190 l 75 -132 l 281 -132 l 324 -187 z "},"v":{"ha":889,"x_min":29,"x_max":842,"o":"m 790 500 l 739 439 l 699 500 l 749 949 l 801 1010 l 842 949 l 790 500 m 651 222 l 428 -111 l 403 -111 l 419 36 l 625 342 l 664 342 l 651 222 m 119 500 l 69 439 l 29 500 l 79 946 l 131 1007 l 169 946 l 119 500 m 279 -111 l 254 -111 l 106 222 l 119 342 l 158 342 l 296 36 l 279 -111 z "},"w":{"ha":889,"x_min":-36,"x_max":844,"o":"m 793 500 l 742 439 l 703 500 l 753 949 l 804 1010 l 844 949 l 793 500 m 725 -107 l 674 -169 l 633 -107 l 683 338 l 736 399 l 775 338 l 725 -107 m 617 -111 l 592 -111 l 443 222 l 457 342 l 497 342 l 633 36 l 617 -111 m 124 500 l 72 439 l 32 500 l 82 946 l 133 1007 l 174 946 l 124 500 m 319 222 l 96 -111 l 71 -111 l 88 36 l 292 342 l 333 342 l 319 222 m 56 -107 l 3 -169 l -36 -107 l 14 338 l 65 399 l 106 338 l 56 -107 z "},"x":{"ha":889,"x_min":71,"x_max":736,"o":"m 719 801 l 515 497 l 475 497 l 488 617 l 713 950 l 736 950 l 719 801 m 350 497 l 310 497 l 175 801 l 192 950 l 215 950 l 364 617 l 350 497 m 617 -111 l 592 -111 l 444 222 l 458 342 l 497 342 l 633 36 l 617 -111 m 319 222 l 96 -111 l 71 -111 l 88 36 l 292 342 l 333 342 l 319 222 z "},"y":{"ha":889,"x_min":178,"x_max":740,"o":"m 724 801 l 519 497 l 478 497 l 492 617 l 715 950 l 740 950 l 724 801 m 353 497 l 314 497 l 178 801 l 193 950 l 218 950 l 367 617 l 353 497 m 393 -107 l 342 -169 l 303 -107 l 353 338 l 403 399 l 443 338 l 393 -107 z "},"z":{"ha":889,"x_min":17,"x_max":792,"o":"m 792 1029 l 736 971 l 531 971 l 488 1026 l 543 1085 l 749 1085 l 792 1029 m 719 801 l 515 497 l 475 497 l 488 617 l 713 950 l 736 950 l 719 801 m 457 1029 l 401 971 l 196 971 l 153 1026 l 208 1085 l 414 1085 l 457 1029 m 654 -187 l 599 -246 l 394 -246 l 351 -190 l 407 -132 l 613 -132 l 654 -187 m 319 222 l 96 -111 l 71 -111 l 88 36 l 292 342 l 333 342 l 319 222 m 319 -187 l 264 -246 l 58 -246 l 17 -190 l 72 -132 l 276 -132 l 319 -187 z "},"{":{"ha":889,"x_min":85,"x_max":792,"o":"m 792 1029 l 736 971 l 531 971 l 488 1026 l 543 1085 l 749 1085 l 792 1029 m 458 500 l 408 439 l 367 500 l 418 946 l 469 1007 l 508 946 l 458 500 m 390 -107 l 339 -169 l 299 -107 l 349 338 l 400 399 l 442 338 l 390 -107 m 654 -187 l 599 -246 l 394 -246 l 351 -190 l 407 -132 l 613 -132 l 654 -187 m 388 421 l 332 363 l 128 363 l 85 418 l 140 476 l 346 476 l 388 421 z "},"|":{"ha":889,"x_min":299,"x_max":508,"o":"m 458 500 l 408 439 l 367 500 l 418 946 l 469 1007 l 508 946 l 458 500 m 390 -107 l 339 -169 l 299 -107 l 349 338 l 400 399 l 442 338 l 390 -107 z "},"}":{"ha":889,"x_min":17,"x_max":724,"o":"m 457 1029 l 401 971 l 196 971 l 153 1026 l 208 1085 l 414 1085 l 457 1029 m 458 500 l 408 439 l 367 500 l 418 946 l 469 1007 l 508 946 l 458 500 m 390 -107 l 339 -169 l 299 -107 l 349 338 l 400 399 l 442 338 l 390 -107 m 319 -187 l 264 -246 l 58 -246 l 17 -190 l 72 -132 l 276 -132 l 319 -187 m 724 421 l 668 363 l 463 363 l 419 418 l 475 476 l 681 476 l 724 421 z "},"Æ":{"ha":889,"x_min":-36,"x_max":792,"o":"m 792 1029 l 736 971 l 531 971 l 488 1026 l 543 1085 l 749 1085 l 792 1029 m 458 500 l 408 439 l 367 500 l 418 946 l 469 1007 l 508 946 l 458 500 m 724 421 l 668 363 l 463 363 l 419 418 l 475 476 l 681 476 l 724 421 m 385 801 l 181 497 l 140 497 l 153 617 l 376 950 l 401 950 l 385 801 m 388 421 l 332 363 l 128 363 l 85 418 l 140 476 l 346 476 l 388 421 m 390 -107 l 339 -169 l 299 -107 l 349 338 l 400 399 l 442 338 l 390 -107 m 654 -187 l 599 -246 l 394 -246 l 351 -190 l 407 -132 l 613 -132 l 654 -187 m 56 -107 l 3 -169 l -36 -107 l 14 338 l 65 399 l 106 338 l 56 -107 z "},"Ø":{"ha":889,"x_min":-36,"x_max":844,"o":"m 792 1029 l 736 971 l 531 971 l 488 1026 l 543 1085 l 749 1085 l 792 1029 m 794 500 l 742 439 l 703 500 l 753 949 l 804 1010 l 844 949 l 794 500 m 719 801 l 515 497 l 475 497 l 488 617 l 713 950 l 736 950 l 719 801 m 457 1029 l 401 971 l 196 971 l 153 1026 l 208 1085 l 414 1085 l 457 1029 m 725 -107 l 675 -169 l 635 -107 l 685 338 l 736 399 l 775 338 l 725 -107 m 124 500 l 72 439 l 32 500 l 82 946 l 133 1007 l 175 946 l 124 500 m 654 -187 l 599 -246 l 394 -246 l 351 -190 l 407 -132 l 613 -132 l 654 -187 m 319 222 l 96 -111 l 71 -111 l 88 36 l 292 342 l 333 342 l 319 222 m 56 -107 l 3 -169 l -36 -107 l 14 338 l 65 399 l 106 338 l 56 -107 m 319 -187 l 264 -246 l 58 -246 l 17 -190 l 72 -132 l 276 -132 l 319 -187 z "},"æ":{"ha":889,"x_min":-36,"x_max":792,"o":"m 792 1029 l 736 971 l 531 971 l 488 1026 l 543 1085 l 749 1085 l 792 1029 m 458 500 l 408 439 l 367 500 l 418 946 l 469 1007 l 508 946 l 458 500 m 724 421 l 668 363 l 463 363 l 419 418 l 475 476 l 681 476 l 724 421 m 385 801 l 181 497 l 140 497 l 153 617 l 376 950 l 401 950 l 385 801 m 388 421 l 332 363 l 128 363 l 85 418 l 140 476 l 346 476 l 388 421 m 390 -107 l 339 -169 l 299 -107 l 349 338 l 400 399 l 442 338 l 390 -107 m 654 -187 l 599 -246 l 394 -246 l 351 -190 l 407 -132 l 613 -132 l 654 -187 m 56 -107 l 3 -169 l -36 -107 l 14 338 l 65 399 l 106 338 l 56 -107 z "},"ø":{"ha":889,"x_min":-36,"x_max":844,"o":"m 792 1029 l 736 971 l 531 971 l 488 1026 l 543 1085 l 749 1085 l 792 1029 m 794 500 l 742 439 l 703 500 l 753 949 l 804 1010 l 844 949 l 794 500 m 719 801 l 515 497 l 475 497 l 488 617 l 713 950 l 736 950 l 719 801 m 457 1029 l 401 971 l 196 971 l 153 1026 l 208 1085 l 414 1085 l 457 1029 m 725 -107 l 675 -169 l 635 -107 l 685 338 l 736 399 l 775 338 l 725 -107 m 124 500 l 72 439 l 32 500 l 82 946 l 133 1007 l 175 946 l 124 500 m 654 -187 l 599 -246 l 394 -246 l 351 -190 l 407 -132 l 613 -132 l 654 -187 m 319 222 l 96 -111 l 71 -111 l 88 36 l 292 342 l 333 342 l 319 222 m 56 -107 l 3 -169 l -36 -107 l 14 338 l 65 399 l 106 338 l 56 -107 m 319 -187 l 264 -246 l 58 -246 l 17 -190 l 72 -132 l 276 -132 l 319 -187 z "}}}
